<?xml version="1.0" encoding="utf-8"?>
<!-- Generator: Adobe Illustrator 19.0.0, SVG Export Plug-In . SVG Version: 6.00 Build 0)  -->
<svg version="1.1" id="Layer_1" xmlns="http://www.w3.org/2000/svg" xmlns:xlink="http://www.w3.org/1999/xlink" x="0px" y="0px"
	 viewBox="0 0 50 50" style="enable-background:new 0 0 50 50;" xml:space="preserve">
<style type="text/css">
	.st0{fill-rule:evenodd;clip-rule:evenodd;fill:#FFFFFF;}
</style>
<rect width="50" height="50"/>
<path class="st0" d="M13.7,13.1v6.2H7.5v0.3v2.9v6v3.3h3.6h2.5h3.6v-9.2v-3.5v-6H13.7z M11,22.4h2.7v6.2H11V22.4z M18,19.3h3.5v12.4
	H18V19.3z M18,13.1h3.5v3.5H18V13.1z M32.4,19.3L32.4,19.3h-9.3v3.3v9.2h5.8v2.7h-5.8v3.5h5.8h3.5v-6.1v-3.5V19.3z M26.6,22.4h2.3
	v6.2h-2.3V22.4z M42.5,19.3h-9.3v9.2v3.3h6.2v2.7h-6.2v3.5h6.1h3.2v-3.7v-2.3v-3.5v-5.9V19.3z M39.4,28.6h-2.7v-6.2h2.7V28.6z"/>
</svg>
