<?xml version="1.0" encoding="utf-8"?>
<!-- Generator: Adobe Illustrator 19.0.0, SVG Export Plug-In . SVG Version: 6.00 Build 0)  -->
<svg version="1.1" id="Layer_1" xmlns="http://www.w3.org/2000/svg" xmlns:xlink="http://www.w3.org/1999/xlink" x="0px" y="0px"
	 viewBox="0 0 50 50" style="enable-background:new 0 0 50 50;" xml:space="preserve">
<style type="text/css">
	.st0{fill:#2CA9E1;}
	.st1{clip-path:url(#SVGID_2_);fill:#FFFFFF;}
</style>
<rect class="st0" width="50" height="50"/>
<g>
	<defs>
		<rect id="SVGID_1_" width="50" height="50"/>
	</defs>
	<clipPath id="SVGID_2_">
		<use xlink:href="#SVGID_1_"  style="overflow:visible;"/>
	</clipPath>
	<path class="st1" d="M42.5,14.1c-1.3,0.6-2.7,1-4.1,1.1c1.5-0.9,2.6-2.3,3.2-4c-1.4,0.8-2.9,1.4-4.6,1.7c-1.3-1.4-3.2-2.3-5.2-2.3
		c-4,0-7.2,3.2-7.2,7.2c0,0.6,0.1,1.1,0.2,1.6c-6-0.3-11.3-3.2-14.8-7.5c-0.6,1.1-1,2.3-1,3.6c0,2.5,1.3,4.7,3.2,6
		c-1.2,0-2.3-0.4-3.3-0.9c0,0,0,0.1,0,0.1c0,3.5,2.5,6.4,5.8,7c-0.6,0.2-1.2,0.3-1.9,0.3c-0.5,0-0.9,0-1.4-0.1
		c0.9,2.9,3.6,4.9,6.7,5c-2.5,1.9-5.6,3.1-8.9,3.1c-0.6,0-1.2,0-1.7-0.1c3.2,2,7,3.2,11,3.2c13.2,0,20.4-10.9,20.4-20.4
		c0-0.3,0-0.6,0-0.9C40.3,16.8,41.5,15.6,42.5,14.1"/>
</g>
</svg>
