<?xml version="1.0" encoding="utf-8"?>
<!-- Generator: Adobe Illustrator 19.0.0, SVG Export Plug-In . SVG Version: 6.00 Build 0)  -->
<svg version="1.1" id="Layer_1" xmlns="http://www.w3.org/2000/svg" xmlns:xlink="http://www.w3.org/1999/xlink" x="0px" y="0px"
	 viewBox="0 0 49 50" style="enable-background:new 0 0 49 50;" xml:space="preserve">
<style type="text/css">
	.st0{clip-path:url(#SVGID_2_);fill:#FFFFFF;}
	.st1{clip-path:url(#SVGID_2_);fill:#EA4435;}
	.st2{clip-path:url(#SVGID_2_);fill:#F9BC15;}
	.st3{clip-path:url(#SVGID_2_);fill:#557DBF;}
	.st4{clip-path:url(#SVGID_2_);fill:#36A852;}
</style>
<g>
	<defs>
		<rect id="SVGID_1_" width="49" height="50"/>
	</defs>
	<clipPath id="SVGID_2_">
		<use xlink:href="#SVGID_1_"  style="overflow:visible;"/>
	</clipPath>
	<path class="st0" d="M16.8,1.4C10.7,3.5,5.6,8,2.7,13.8c-1,2-1.7,4.1-2.2,6.3c-1.1,5.4-0.3,11.2,2.2,16.2c1.6,3.2,4,6.1,6.8,8.3
		c2.7,2.1,5.8,3.7,9.1,4.6c4.2,1.1,8.6,1.1,12.8,0.1c3.8-0.9,7.4-2.7,10.2-5.3c3-2.8,5.2-6.4,6.3-10.4c1.2-4.3,1.4-8.9,0.6-13.3H25
		v9.8h13.6c-0.5,3.1-2.4,6-5,7.7c-1.7,1.1-3.5,1.8-5.5,2.2c-2,0.3-4,0.4-6,0c-2-0.4-3.9-1.2-5.6-2.4c-2.7-1.9-4.7-4.6-5.7-7.7
		c-1.1-3.1-1.1-6.6,0-9.7c0.8-2.2,2-4.2,3.6-5.9c2-2.1,4.6-3.5,7.5-4.2c2.4-0.5,5-0.4,7.3,0.3c2,0.6,3.9,1.7,5.4,3.2
		c1.5-1.5,3.1-3.1,4.6-4.6c0.8-0.8,1.7-1.6,2.4-2.5c-2.3-2.2-5.1-3.9-8-5C28.3-0.5,22.2-0.5,16.8,1.4"/>
	<path class="st1" d="M16.8,1.4c5.4-1.9,11.5-1.8,16.8,0.1c3,1.1,5.7,2.8,8,5c-0.8,0.8-1.6,1.6-2.4,2.5c-1.5,1.5-3.1,3.1-4.6,4.6
		c-1.5-1.5-3.4-2.6-5.4-3.2c-2.4-0.7-4.9-0.8-7.3-0.3c-2.8,0.6-5.4,2.1-7.5,4.2c-1.6,1.7-2.9,3.7-3.6,5.9c-2.7-2.1-5.5-4.2-8.2-6.4
		C5.6,8,10.7,3.5,16.8,1.4"/>
	<path class="st2" d="M0.5,20c0.4-2.2,1.2-4.3,2.2-6.3c2.7,2.1,5.5,4.2,8.2,6.4c-1.1,3.1-1.1,6.6,0,9.7c-2.7,2.1-5.5,4.2-8.2,6.4
		C0.2,31.3-0.6,25.5,0.5,20"/>
	<path class="st3" d="M25,20.3h23.5c0.8,4.4,0.6,9-0.6,13.3c-1.1,3.9-3.3,7.6-6.3,10.4c-2.6-2.1-5.3-4.1-7.9-6.2
		c2.6-1.8,4.5-4.6,5-7.7H25C25,26.8,25,23.6,25,20.3"/>
	<path class="st4" d="M2.7,36.2c2.7-2.1,5.5-4.2,8.2-6.4c1,3.1,3.1,5.8,5.7,7.7c1.7,1.2,3.6,2,5.6,2.4c2,0.4,4,0.3,6,0
		c2-0.3,3.9-1.1,5.5-2.2c2.6,2.1,5.3,4.1,7.9,6.2c-2.9,2.6-6.5,4.4-10.2,5.3c-4.2,1-8.6,1-12.8-0.1c-3.3-0.9-6.4-2.4-9.1-4.6
		C6.6,42.3,4.3,39.4,2.7,36.2"/>
</g>
</svg>
