<?xml version="1.0" encoding="utf-8"?>
<!-- Generator: Adobe Illustrator 19.0.0, SVG Export Plug-In . SVG Version: 6.00 Build 0)  -->
<svg version="1.1" id="Layer_1" xmlns="http://www.w3.org/2000/svg" xmlns:xlink="http://www.w3.org/1999/xlink" x="0px" y="0px"
	 viewBox="0 0 50 50" style="enable-background:new 0 0 50 50;" xml:space="preserve">
<style type="text/css">
	.st0{fill:#017BB6;}
	.st1{clip-path:url(#SVGID_2_);fill:#FFFFFF;}
</style>
<rect class="st0" width="50" height="50"/>
<g>
	<defs>
		<rect id="SVGID_1_" width="50" height="50"/>
	</defs>
	<clipPath id="SVGID_2_">
		<use xlink:href="#SVGID_1_"  style="overflow:visible;"/>
	</clipPath>
	<path class="st1" d="M42.1,28.8v12.9h-7.5V29.6c0-3-1.1-5.1-3.8-5.1c-2.1,0-3.3,1.4-3.8,2.7c-0.2,0.5-0.2,1.2-0.2,1.8v12.6h-7.5
		c0,0,0.1-20.4,0-22.6h7.5v3.2c0,0,0,0,0,0.1h0v-0.1c1-1.5,2.8-3.7,6.8-3.7C38.4,18.6,42.1,21.9,42.1,28.8 M11.4,8.3
		c-2.6,0-4.2,1.7-4.2,3.9c0,2.2,1.6,3.9,4.1,3.9h0.1c2.6,0,4.2-1.7,4.2-3.9C15.5,10,13.9,8.3,11.4,8.3 M7.6,41.7h7.5V19.2H7.6V41.7z
		"/>
</g>
</svg>
